<svg
  width="424"
  height="74"
  viewBox="0 0 424 74"
  fill="none"
  xmlns="http://www.w3.org/2000/svg"
>
  <path
    d="M26.2728 0C37.0303 0 47.7879 3.28571 52.091 11.5V44.3571C52.091 55.8571 39.1819 65.7143 26.2728 69C13.3637 65.7143 0.45459 55.8571 0.45459 44.3571V11.5C4.75762 3.28571 15.5152 0 26.2728 0Z"
    fill="url(#paint0_linear_0_1)"
  />
  <path
    d="M15.5152 26.2857C20.2682 26.2857 24.1213 23.3436 24.1213 19.7143C24.1213 16.085 20.2682 13.1428 15.5152 13.1428C10.7622 13.1428 6.90918 16.085 6.90918 19.7143C6.90918 23.3436 10.7622 26.2857 15.5152 26.2857Z"
    fill="url(#paint1_linear_0_1)"
  />
  <path
    d="M19.8182 26.2854H15.5151V45.9997H19.8182V26.2854Z"
    fill="url(#paint2_linear_0_1)"
  />
  <path
    d="M28.4243 32.8574H19.8182V36.1431H28.4243V32.8574Z"
    fill="url(#paint3_linear_0_1)"
  />
  <path
    d="M26.2728 39.4287H19.8182V42.7144H26.2728V39.4287Z"
    fill="url(#paint4_linear_0_1)"
  />
  <path
    opacity="0.9"
    d="M41.3334 29.5713H32.7273C31.5391 29.5713 30.5758 30.3068 30.5758 31.2141V41.0713C30.5758 41.9786 31.5391 42.7141 32.7273 42.7141H41.3334C42.5216 42.7141 43.4849 41.9786 43.4849 41.0713V31.2141C43.4849 30.3068 42.5216 29.5713 41.3334 29.5713Z"
    fill="white"
  />
  <path
    opacity="0.9"
    d="M37.0303 29.5715V24.6429C37.0303 22.1786 33.803 19.7144 30.5758 19.7144C27.3485 19.7144 24.1212 22.1786 24.1212 24.6429V29.5715"
    stroke="white"
    stroke-width="1.5"
  />
  <path
    d="M37.0303 37.7857C38.2185 37.7857 39.1818 37.0502 39.1818 36.1429C39.1818 35.2355 38.2185 34.5 37.0303 34.5C35.8421 34.5 34.8788 35.2355 34.8788 36.1429C34.8788 37.0502 35.8421 37.7857 37.0303 37.7857Z"
    fill="url(#paint5_linear_0_1)"
  />
  <g filter="url(#filter0_d_0_1)">
    <path
      d="M99.6335 24.9858C99.4744 23.3816 98.7917 22.1354 97.5852 21.2472C96.3788 20.3589 94.7415 19.9148 92.6733 19.9148C91.268 19.9148 90.0814 20.1136 89.1136 20.5114C88.1458 20.8958 87.4034 21.4328 86.8864 22.1222C86.3826 22.8116 86.1307 23.5938 86.1307 24.4688C86.1042 25.1979 86.2566 25.8343 86.5881 26.3778C86.9328 26.9214 87.4034 27.392 88 27.7898C88.5966 28.1742 89.286 28.5123 90.0682 28.804C90.8504 29.0824 91.6856 29.321 92.5739 29.5199L96.233 30.3949C98.0095 30.7926 99.6402 31.3229 101.125 31.9858C102.61 32.6487 103.896 33.464 104.983 34.4318C106.07 35.3996 106.912 36.5398 107.509 37.8523C108.118 39.1648 108.43 40.6695 108.443 42.3665C108.43 44.8589 107.794 47.0199 106.534 48.8494C105.288 50.6657 103.485 52.0777 101.125 53.0852C98.7784 54.0795 95.9479 54.5767 92.6335 54.5767C89.3456 54.5767 86.482 54.0729 84.0426 53.0653C81.6165 52.0578 79.7206 50.5663 78.3551 48.5909C77.0028 46.6023 76.2936 44.143 76.2273 41.2131H84.5597C84.6525 42.5786 85.0436 43.7187 85.733 44.6335C86.4356 45.535 87.3703 46.2178 88.5369 46.6818C89.7169 47.1326 91.0492 47.358 92.5341 47.358C93.9924 47.358 95.2585 47.1458 96.3324 46.7216C97.4195 46.2973 98.2614 45.7074 98.858 44.9517C99.4545 44.196 99.7528 43.3277 99.7528 42.3466C99.7528 41.4318 99.4811 40.6629 98.9375 40.0398C98.4072 39.4167 97.625 38.8864 96.5909 38.4489C95.5701 38.0114 94.3172 37.6136 92.8324 37.2557L88.3977 36.142C84.964 35.3068 82.2528 34.0009 80.2642 32.2244C78.2756 30.4479 77.2879 28.0549 77.3011 25.0455C77.2879 22.5795 77.9441 20.4252 79.2699 18.5824C80.6089 16.7396 82.4451 15.3011 84.7784 14.267C87.1117 13.233 89.7633 12.7159 92.733 12.7159C95.7557 12.7159 98.3939 13.233 100.648 14.267C102.915 15.3011 104.678 16.7396 105.938 18.5824C107.197 20.4252 107.847 22.5597 107.886 24.9858H99.6335ZM127.996 54.5966C124.854 54.5966 122.15 53.9602 119.883 52.6875C117.629 51.4015 115.892 49.5852 114.673 47.2386C113.453 44.8788 112.843 42.0881 112.843 38.8665C112.843 35.7244 113.453 32.9669 114.673 30.5938C115.892 28.2206 117.609 26.3712 119.823 25.0455C122.05 23.7197 124.662 23.0568 127.658 23.0568C129.674 23.0568 131.549 23.3816 133.286 24.0312C135.036 24.6676 136.561 25.6288 137.86 26.9148C139.173 28.2008 140.193 29.8182 140.923 31.767C141.652 33.7027 142.016 35.9697 142.016 38.5682V40.8949H116.224V35.6449H134.042C134.042 34.4252 133.777 33.3447 133.246 32.4034C132.716 31.4621 131.98 30.7263 131.039 30.196C130.111 29.6525 129.031 29.3807 127.798 29.3807C126.512 29.3807 125.371 29.679 124.377 30.2756C123.396 30.8589 122.627 31.6477 122.07 32.642C121.513 33.6231 121.228 34.7169 121.215 35.9233V40.9148C121.215 42.4261 121.494 43.732 122.05 44.8324C122.621 45.9328 123.423 46.7812 124.457 47.3778C125.491 47.9744 126.717 48.2727 128.136 48.2727C129.077 48.2727 129.939 48.1402 130.721 47.875C131.503 47.6098 132.173 47.2121 132.729 46.6818C133.286 46.1515 133.71 45.5019 134.002 44.733L141.837 45.25C141.44 47.1326 140.624 48.7765 139.391 50.1818C138.172 51.5739 136.594 52.661 134.658 53.4432C132.736 54.2121 130.515 54.5966 127.996 54.5966ZM161.346 54.5966C158.217 54.5966 155.526 53.9337 153.272 52.608C151.031 51.2689 149.308 49.4129 148.102 47.0398C146.908 44.6667 146.312 41.9356 146.312 38.8466C146.312 35.7178 146.915 32.9735 148.121 30.6136C149.341 28.2405 151.071 26.3911 153.312 25.0653C155.552 23.7263 158.217 23.0568 161.306 23.0568C163.971 23.0568 166.304 23.5407 168.306 24.5085C170.308 25.4763 171.892 26.8352 173.059 28.5852C174.226 30.3352 174.869 32.3902 174.988 34.75H166.994C166.768 33.2254 166.172 31.9991 165.204 31.071C164.249 30.1297 162.996 29.6591 161.445 29.6591C160.133 29.6591 158.986 30.017 158.005 30.733C157.037 31.4356 156.281 32.4631 155.738 33.8153C155.194 35.1676 154.923 36.8049 154.923 38.7273C154.923 40.6761 155.188 42.3333 155.718 43.6989C156.262 45.0644 157.024 46.1051 158.005 46.821C158.986 47.5369 160.133 47.8949 161.445 47.8949C162.413 47.8949 163.281 47.696 164.05 47.2983C164.833 46.9006 165.476 46.3239 165.979 45.5682C166.496 44.7992 166.835 43.8778 166.994 42.804H174.988C174.855 45.1373 174.219 47.1922 173.079 48.9688C171.952 50.732 170.394 52.1108 168.406 53.1051C166.417 54.0994 164.064 54.5966 161.346 54.5966ZM200 40.9943V23.4545H208.472V54H200.338V48.4517H200.02C199.33 50.2415 198.184 51.6799 196.58 52.767C194.989 53.8542 193.046 54.3977 190.753 54.3977C188.711 54.3977 186.915 53.9337 185.364 53.0057C183.813 52.0777 182.599 50.7585 181.724 49.0483C180.863 47.3381 180.425 45.2898 180.412 42.9034V23.4545H188.884V41.392C188.897 43.1951 189.381 44.6203 190.335 45.6676C191.29 46.715 192.569 47.2386 194.173 47.2386C195.194 47.2386 196.149 47.0066 197.037 46.5426C197.925 46.0653 198.641 45.3627 199.185 44.4347C199.741 43.5066 200.013 42.3598 200 40.9943ZM215.248 54V23.4545H223.461V28.7841H223.779C224.336 26.8883 225.271 25.4564 226.583 24.4886C227.896 23.5076 229.407 23.017 231.117 23.017C231.541 23.017 231.999 23.0436 232.489 23.0966C232.98 23.1496 233.411 23.2225 233.782 23.3153V30.8324C233.384 30.7131 232.834 30.607 232.131 30.5142C231.429 30.4214 230.786 30.375 230.202 30.375C228.956 30.375 227.843 30.6468 226.862 31.1903C225.894 31.7206 225.125 32.4631 224.555 33.4176C223.998 34.3722 223.719 35.4725 223.719 36.7188V54H215.248ZM250.661 54.5966C247.518 54.5966 244.814 53.9602 242.547 52.6875C240.293 51.4015 238.556 49.5852 237.337 47.2386C236.117 44.8788 235.507 42.0881 235.507 38.8665C235.507 35.7244 236.117 32.9669 237.337 30.5938C238.556 28.2206 240.273 26.3712 242.487 25.0455C244.714 23.7197 247.326 23.0568 250.322 23.0568C252.338 23.0568 254.214 23.3816 255.95 24.0312C257.7 24.6676 259.225 25.6288 260.524 26.9148C261.837 28.2008 262.857 29.8182 263.587 31.767C264.316 33.7027 264.68 35.9697 264.68 38.5682V40.8949H238.888V35.6449H256.706C256.706 34.4252 256.441 33.3447 255.911 32.4034C255.38 31.4621 254.644 30.7263 253.703 30.196C252.775 29.6525 251.695 29.3807 250.462 29.3807C249.176 29.3807 248.036 29.679 247.041 30.2756C246.06 30.8589 245.291 31.6477 244.734 32.642C244.178 33.6231 243.893 34.7169 243.879 35.9233V40.9148C243.879 42.4261 244.158 43.732 244.714 44.8324C245.285 45.9328 246.087 46.7812 247.121 47.3778C248.155 47.9744 249.381 48.2727 250.8 48.2727C251.741 48.2727 252.603 48.1402 253.385 47.875C254.167 47.6098 254.837 47.2121 255.393 46.6818C255.95 46.1515 256.375 45.5019 256.666 44.733L264.501 45.25C264.104 47.1326 263.288 48.7765 262.055 50.1818C260.836 51.5739 259.258 52.661 257.322 53.4432C255.4 54.2121 253.179 54.5966 250.661 54.5966ZM270.368 54V13.2727H278.979V31.2301H279.516L294.172 13.2727H304.493L289.379 31.5085L304.672 54H294.371L283.214 37.2557L278.979 42.4261V54H270.368ZM320.496 54.5966C317.354 54.5966 314.65 53.9602 312.383 52.6875C310.129 51.4015 308.392 49.5852 307.173 47.2386C305.953 44.8788 305.343 42.0881 305.343 38.8665C305.343 35.7244 305.953 32.9669 307.173 30.5938C308.392 28.2206 310.109 26.3712 312.323 25.0455C314.55 23.7197 317.162 23.0568 320.158 23.0568C322.174 23.0568 324.049 23.3816 325.786 24.0312C327.536 24.6676 329.061 25.6288 330.36 26.9148C331.673 28.2008 332.693 29.8182 333.423 31.767C334.152 33.7027 334.516 35.9697 334.516 38.5682V40.8949H308.724V35.6449H326.542C326.542 34.4252 326.277 33.3447 325.746 32.4034C325.216 31.4621 324.48 30.7263 323.539 30.196C322.611 29.6525 321.531 29.3807 320.298 29.3807C319.012 29.3807 317.871 29.679 316.877 30.2756C315.896 30.8589 315.127 31.6477 314.57 32.642C314.013 33.6231 313.728 34.7169 313.715 35.9233V40.9148C313.715 42.4261 313.994 43.732 314.55 44.8324C315.121 45.9328 315.923 46.7812 316.957 47.3778C317.991 47.9744 319.217 48.2727 320.636 48.2727C321.577 48.2727 322.439 48.1402 323.221 47.875C324.003 47.6098 324.673 47.2121 325.229 46.6818C325.786 46.1515 326.21 45.5019 326.502 44.733L334.337 45.25C333.94 47.1326 333.124 48.7765 331.891 50.1818C330.672 51.5739 329.094 52.661 327.158 53.4432C325.236 54.2121 323.015 54.5966 320.496 54.5966ZM353.965 54.5966C350.823 54.5966 348.119 53.9602 345.852 52.6875C343.598 51.4015 341.861 49.5852 340.641 47.2386C339.422 44.8788 338.812 42.0881 338.812 38.8665C338.812 35.7244 339.422 32.9669 340.641 30.5938C341.861 28.2206 343.578 26.3712 345.792 25.0455C348.019 23.7197 350.631 23.0568 353.627 23.0568C355.642 23.0568 357.518 23.3816 359.255 24.0312C361.005 24.6676 362.53 25.6288 363.829 26.9148C365.141 28.2008 366.162 29.8182 366.891 31.767C367.621 33.7027 367.985 35.9697 367.985 38.5682V40.8949H342.192V35.6449H360.011C360.011 34.4252 359.746 33.3447 359.215 32.4034C358.685 31.4621 357.949 30.7263 357.008 30.196C356.08 29.6525 354.999 29.3807 353.766 29.3807C352.48 29.3807 351.34 29.679 350.346 30.2756C349.365 30.8589 348.596 31.6477 348.039 32.642C347.482 33.6231 347.197 34.7169 347.184 35.9233V40.9148C347.184 42.4261 347.462 43.732 348.019 44.8324C348.589 45.9328 349.391 46.7812 350.425 47.3778C351.46 47.9744 352.686 48.2727 354.104 48.2727C355.046 48.2727 355.907 48.1402 356.69 47.875C357.472 47.6098 358.141 47.2121 358.698 46.6818C359.255 46.1515 359.679 45.5019 359.971 44.733L367.806 45.25C367.408 47.1326 366.593 48.7765 365.36 50.1818C364.14 51.5739 362.563 52.661 360.627 53.4432C358.705 54.2121 356.484 54.5966 353.965 54.5966ZM373.513 65.4545V23.4545H381.866V28.5852H382.244C382.615 27.7633 383.152 26.928 383.854 26.0795C384.57 25.2178 385.498 24.5019 386.638 23.9318C387.792 23.3485 389.224 23.0568 390.934 23.0568C393.161 23.0568 395.216 23.6402 397.099 24.8068C398.981 25.9602 400.486 27.7036 401.613 30.0369C402.74 32.357 403.303 35.267 403.303 38.767C403.303 42.1742 402.753 45.0511 401.653 47.3977C400.566 49.7311 399.081 51.5009 397.198 52.7074C395.329 53.9006 393.234 54.4972 390.914 54.4972C389.27 54.4972 387.871 54.2254 386.718 53.6818C385.578 53.1383 384.643 52.4555 383.914 51.6335C383.185 50.7983 382.628 49.9564 382.244 49.108H381.985V65.4545H373.513ZM381.806 38.7273C381.806 40.5436 382.058 42.1278 382.562 43.4801C383.066 44.8324 383.795 45.8864 384.749 46.642C385.704 47.3845 386.864 47.7557 388.229 47.7557C389.608 47.7557 390.775 47.3778 391.729 46.6222C392.684 45.8532 393.406 44.7926 393.897 43.4403C394.401 42.0748 394.653 40.5038 394.653 38.7273C394.653 36.964 394.407 35.4129 393.917 34.0739C393.426 32.7348 392.704 31.6875 391.749 30.9318C390.795 30.1761 389.621 29.7983 388.229 29.7983C386.851 29.7983 385.684 30.1629 384.729 30.892C383.788 31.6212 383.066 32.6553 382.562 33.9943C382.058 35.3333 381.806 36.911 381.806 38.7273Z"
      fill="url(#paint6_linear_0_1)"
    />
  </g>
  <path
    opacity="0.3"
    d="M394 12C396.761 12 399 9.76142 399 7C399 4.23858 396.761 2 394 2C391.239 2 389 4.23858 389 7C389 9.76142 391.239 12 394 12Z"
    fill="#4F46E5"
  />
  <path
    opacity="0.4"
    d="M420 37C422.209 37 424 35.2091 424 33C424 30.7909 422.209 29 420 29C417.791 29 416 30.7909 416 33C416 35.2091 417.791 37 420 37Z"
    fill="#7C3AED"
  />
  <path
    opacity="0.3"
    d="M407 62C408.657 62 410 60.8807 410 59.5C410 58.1193 408.657 57 407 57C405.343 57 404 58.1193 404 59.5C404 60.8807 405.343 62 407 62Z"
    fill="#F59E0B"
  />
  <defs>
    <filter
      id="filter0_d_0_1"
      x="72.2273"
      y="12.7158"
      width="335.076"
      height="60.7388"
      filterUnits="userSpaceOnUse"
      color-interpolation-filters="sRGB"
    >
      <feFlood flood-opacity="0" result="BackgroundImageFix" />
      <feColorMatrix
        in="SourceAlpha"
        type="matrix"
        values="0 0 0 0 0 0 0 0 0 0 0 0 0 0 0 0 0 0 127 0"
        result="hardAlpha"
      />
      <feOffset dy="4" />
      <feGaussianBlur stdDeviation="2" />
      <feComposite in2="hardAlpha" operator="out" />
      <feColorMatrix
        type="matrix"
        values="0 0 0 0 0 0 0 0 0 0 0 0 0 0 0 0 0 0 0.25 0"
      />
      <feBlend
        mode="normal"
        in2="BackgroundImageFix"
        result="effect1_dropShadow_0_1"
      />
      <feBlend
        mode="normal"
        in="SourceGraphic"
        in2="effect1_dropShadow_0_1"
        result="shape"
      />
    </filter>
    <linearGradient
      id="paint0_linear_0_1"
      x1="0.45459"
      y1="0"
      x2="6620.36"
      y2="4954.03"
      gradientUnits="userSpaceOnUse"
    >
      <stop stop-color="#4F46E5" />
      <stop offset="1" stop-color="#7C3AED" />
    </linearGradient>
    <linearGradient
      id="paint1_linear_0_1"
      x1="6.90918"
      y1="13.1428"
      x2="1274.79"
      y2="1673.58"
      gradientUnits="userSpaceOnUse"
    >
      <stop stop-color="#F59E0B" />
      <stop offset="1" stop-color="#EF4444" />
    </linearGradient>
    <linearGradient
      id="paint2_linear_0_1"
      x1="15.5151"
      y1="26.2854"
      x2="836.985"
      y2="205.587"
      gradientUnits="userSpaceOnUse"
    >
      <stop stop-color="#F59E0B" />
      <stop offset="1" stop-color="#EF4444" />
    </linearGradient>
    <linearGradient
      id="paint3_linear_0_1"
      x1="19.8182"
      y1="32.8574"
      x2="238.791"
      y2="606.399"
      gradientUnits="userSpaceOnUse"
    >
      <stop stop-color="#F59E0B" />
      <stop offset="1" stop-color="#EF4444" />
    </linearGradient>
    <linearGradient
      id="paint4_linear_0_1"
      x1="19.8182"
      y1="39.4287"
      x2="285.494"
      y2="561.328"
      gradientUnits="userSpaceOnUse"
    >
      <stop stop-color="#F59E0B" />
      <stop offset="1" stop-color="#EF4444" />
    </linearGradient>
    <linearGradient
      id="paint5_linear_0_1"
      x1="34.8788"
      y1="34.5"
      x2="351.849"
      y2="449.61"
      gradientUnits="userSpaceOnUse"
    >
      <stop stop-color="#4F46E5" />
      <stop offset="1" stop-color="#7C3AED" />
    </linearGradient>
    <linearGradient
      id="paint6_linear_0_1"
      x1="74"
      y1="35"
      x2="415"
      y2="35"
      gradientUnits="userSpaceOnUse"
    >
      <stop stop-color="#9810FA" />
      <stop offset="1" stop-color="#00409A" />
    </linearGradient>
  </defs>
</svg>
